<svg width="20" height="20" viewBox="0 0 20 20" fill="none" xmlns="http://www.w3.org/2000/svg">
<path d="M17.8267 15.586C17.5244 16.2848 17.1664 16.9279 16.7514 17.5194C16.1861 18.3255 15.7231 18.8834 15.3664 19.1934C14.8133 19.702 14.2207 19.9624 13.5862 19.9772C13.1306 19.9772 12.5813 19.8477 11.9418 19.5847C11.3002 19.3229 10.7106 19.1934 10.1715 19.1934C9.60606 19.1934 8.99966 19.3229 8.35105 19.5847C7.70143 19.8477 7.17812 19.9847 6.778 19.9983C6.16951 20.0241 5.56299 19.7562 4.95757 19.1934C4.57116 18.8563 4.08786 18.2785 3.50885 17.4601C2.88764 16.586 2.37693 15.5724 1.97681 14.4169C1.5483 13.1688 1.3335 11.9602 1.3335 10.7901C1.3335 9.44981 1.62312 8.2938 2.20322 7.32506C2.65914 6.54695 3.26565 5.93313 4.02477 5.48254C4.78388 5.03194 5.6041 4.80231 6.4874 4.78761C6.97072 4.78761 7.60452 4.93713 8.39215 5.23094C9.17756 5.52574 9.68186 5.67525 9.90296 5.67525C10.0683 5.67525 10.6285 5.50043 11.5782 5.15193C12.4763 4.82874 13.2343 4.69491 13.8553 4.74762C15.538 4.88342 16.8022 5.54673 17.6428 6.74176C16.1379 7.65358 15.3935 8.93069 15.4083 10.569C15.4219 11.8452 15.8849 12.9071 16.7947 13.7503C17.207 14.1416 17.6675 14.4441 18.1798 14.6589C18.0688 14.9811 17.9514 15.2897 17.8267 15.586ZM13.9677 0.400113C13.9677 1.40034 13.6022 2.33425 12.8739 3.19867C11.9949 4.22628 10.9317 4.82009 9.77877 4.7264C9.76408 4.6064 9.75556 4.4801 9.75556 4.34739C9.75556 3.38718 10.1736 2.35955 10.9159 1.51934C11.2865 1.09392 11.7578 0.740188 12.3294 0.458012C12.8998 0.180045 13.4393 0.0263241 13.9467 0C13.9615 0.133715 13.9677 0.267438 13.9677 0.400099V0.400113Z" fill="black"/>
</svg>
