<svg width="120" height="120" viewBox="0 0 120 120" fill="none" xmlns="http://www.w3.org/2000/svg">
<path d="M27.8065 48.3331L27.7785 58.5794L27.3768 58.0415C26.4049 56.7491 25.0592 55.5131 23.6762 54.6356C20.8916 52.8807 17.0416 52.2862 13.5281 53.0694C11.0424 53.626 8.85581 54.8338 6.90282 56.7207C3.6696 59.8531 2.20251 63.4667 2.34266 67.9859C2.41743 70.4956 2.90335 72.4391 3.94994 74.4771C4.66946 75.8829 5.38899 76.8454 6.65984 78.1378C8.73434 80.2418 10.8836 81.44 13.6963 82.0628C14.9485 82.3458 18.0041 82.3648 19.275 82.11C21.228 81.7043 23.1063 80.8929 24.7135 79.7513C25.1714 79.4304 26.0497 78.6474 26.6851 78.0151L27.8251 76.8641V79.2606V81.6666H29.6008H31.3762V59.872V38.0774H29.6008H27.8251L27.8065 48.3331ZM18.9105 56.3905C23.2089 57.0416 26.816 60.5702 27.7878 65.061C28.0402 66.2028 28.0402 69.1087 27.7878 70.2503C26.8347 74.6658 23.6202 77.8266 19.088 78.7888C18.0789 79.0058 16.0791 79.0153 15.0139 78.8078C10.6967 77.9492 7.37939 74.6753 6.25804 70.1655C6.0431 69.2785 6.01508 68.9861 6.01508 67.5613C6.01508 66.2028 6.0431 65.8158 6.23 65.061C7.19249 61.108 9.89306 58.0228 13.4346 56.8244C15.1821 56.2395 16.9856 56.0981 18.9105 56.3905Z" fill="#323131"/>
<path d="M51.3737 52.8049C47.7107 53.1635 44.5709 54.805 42.2815 57.5883C40.5714 59.6546 39.4968 61.8529 38.9267 64.4664C38.7491 65.2683 38.7211 65.6835 38.7211 67.5611C38.7211 69.4574 38.7398 69.8537 38.9267 70.684C39.9173 75.2599 42.8888 79.2415 46.636 81.0057C48.3928 81.836 50.1869 82.2228 52.5511 82.2983C56.7842 82.4397 59.9893 81.3548 62.8954 78.8074C63.9701 77.8639 65.5307 75.8072 66.2314 74.4108L66.4931 73.873L64.9981 73.071L63.4935 72.2691L62.6526 73.5428C61.7181 74.9579 60.4099 76.3732 59.4754 76.9864C57.4663 78.3074 55.2796 78.9583 52.8688 78.9583C49.9347 78.9583 47.804 78.1092 45.7669 76.1373C44.7857 75.1843 44.1316 74.2976 43.5804 73.1937C42.8981 71.835 42.459 70.0706 42.3842 68.5044L42.3562 67.8441L54.9152 67.8157L67.465 67.797L67.409 66.8724C67.2408 64.4853 66.6613 62.2115 65.7549 60.4282C64.4 57.7581 62.1667 55.5127 59.5501 54.1824C57.2701 53.0314 54.2611 52.5219 51.3737 52.8049ZM55.3545 56.4657C58.5876 57.1449 61.3444 59.2866 62.5871 62.0888C62.9048 62.8059 63.4749 64.5701 63.4095 64.6362C63.3813 64.6646 58.7091 64.6739 53.0276 64.6646L42.6832 64.6362L43.0103 63.6927C44.1036 60.5416 45.8324 58.4658 48.4114 57.2299C49.2899 56.8053 50.5608 56.4185 51.5139 56.2959C52.4391 56.1637 54.3453 56.2485 55.3545 56.4657Z" fill="#323131"/>
<path d="M72.0531 53.5694C72.0718 53.6355 74.9686 59.9852 78.4728 67.684L84.855 81.6759L85.1821 81.6477L85.5091 81.6193L91.7514 67.8443C95.1901 60.2682 98.0588 53.928 98.1337 53.7581L98.2832 53.4562H96.3396H94.4051L89.8358 63.627C87.3221 69.2125 85.2383 73.8168 85.2101 73.8545C85.1821 73.8921 83.0516 69.3162 80.4912 63.6836L75.8189 53.4562H73.9126C72.4269 53.4562 72.0156 53.4846 72.0531 53.5694Z" fill="#323131"/>
<path d="M103.638 54.1449C103.834 56.447 105.292 58.5604 107.394 59.5888C108.469 60.1077 109.375 60.287 110.655 60.2209C112.468 60.1361 113.618 59.5982 114.963 58.2303C116.197 56.9753 116.767 55.7866 116.935 54.0883L117 53.4562H110.291H103.582L103.638 54.1449Z" fill="#323131"/>
<path d="M108.468 73.1748V81.6662H110.29H112.113V73.1748V64.6834H110.29H108.468V73.1748Z" fill="#323131"/>
</svg>
