<svg width="63" height="32" viewBox="0 0 63 32" fill="none" xmlns="http://www.w3.org/2000/svg">
<path d="M14.5984 9.68405L14.5837 15.0964L14.3728 14.8123C13.8626 14.1296 13.1561 13.4767 12.43 13.0132C10.9681 12.0862 8.94686 11.7722 7.10225 12.1859C5.79728 12.4799 4.6493 13.1179 3.62398 14.1146C1.92654 15.7692 1.15632 17.678 1.2299 20.0652C1.26915 21.3909 1.52426 22.4175 2.07372 23.494C2.45147 24.2366 2.82922 24.745 3.49642 25.4277C4.58553 26.5391 5.71388 27.172 7.19055 27.501C7.84794 27.6505 9.45217 27.6605 10.1194 27.5259C11.1447 27.3116 12.1308 26.883 12.9746 26.28C13.215 26.1105 13.6761 25.6969 14.0097 25.3629L14.6082 24.7549V26.0208V27.2917H15.5404H16.4725V15.7792V4.2667H15.5404H14.6082L14.5984 9.68405ZM9.92804 13.9402C12.1847 14.2841 14.0784 16.148 14.5886 18.5202C14.7211 19.1233 14.7211 20.6583 14.5886 21.2613C14.0882 23.5937 12.4006 25.2633 10.0212 25.7716C9.49141 25.8862 8.44155 25.8912 7.88228 25.7816C5.61576 25.3281 3.87418 23.5987 3.28547 21.2165C3.17263 20.748 3.15792 20.5935 3.15792 19.8409C3.15792 19.1233 3.17263 18.9189 3.27075 18.5202C3.77606 16.4321 5.19386 14.8024 7.05319 14.1694C7.97059 13.8604 8.91742 13.7857 9.92804 13.9402Z" fill="#323131"/>
<path d="M26.9712 12.0462C25.0481 12.2356 23.3997 13.1027 22.1978 14.5729C21.3 15.6644 20.7358 16.8256 20.4365 18.2061C20.3433 18.6297 20.3286 18.849 20.3286 19.8408C20.3286 20.8425 20.3384 21.0518 20.4365 21.4904C20.9566 23.9075 22.5166 26.0107 24.4839 26.9426C25.4062 27.3812 26.3481 27.5855 27.5893 27.6254C29.8117 27.7001 31.4944 27.127 33.0201 25.7814C33.5843 25.283 34.4036 24.1966 34.7715 23.459L34.9089 23.1749L34.124 22.7513L33.3341 22.3277L32.8926 23.0005C32.402 23.748 31.7152 24.4956 31.2246 24.8195C30.1698 25.5173 29.0218 25.8611 27.7561 25.8611C26.2157 25.8611 25.0971 25.4126 24.0276 24.371C23.5125 23.8676 23.1691 23.3992 22.8797 22.8161C22.5215 22.0984 22.291 21.1664 22.2517 20.3391L22.237 19.9903L28.8305 19.9753L35.4191 19.9654L35.3897 19.477C35.3014 18.2161 34.9972 17.015 34.5213 16.073C33.81 14.6626 32.6375 13.4765 31.2638 12.7738C30.0668 12.1658 28.4871 11.8967 26.9712 12.0462ZM29.0611 13.9799C30.7585 14.3387 32.2058 15.47 32.8582 16.9502C33.025 17.329 33.3243 18.2609 33.29 18.2958C33.2752 18.3108 30.8223 18.3157 27.8395 18.3108L22.4087 18.2958L22.5804 17.7974C23.1544 16.1329 24.062 15.0364 25.416 14.3836C25.8772 14.1593 26.5444 13.955 27.0448 13.8902C27.5305 13.8204 28.5313 13.8652 29.0611 13.9799Z" fill="#323131"/>
<path d="M37.8279 12.45C37.8377 12.4849 39.3585 15.839 41.1982 19.9057L44.5489 27.2966L44.7206 27.2817L44.8923 27.2667L48.1695 19.9904C49.9748 15.9885 51.4809 12.6394 51.5202 12.5497L51.5987 12.3902H50.5783H49.5627L47.1638 17.7627C45.8441 20.7131 44.7501 23.1452 44.7353 23.1651C44.7206 23.185 43.6021 20.7679 42.2579 17.7926L39.8049 12.3902H38.8041C38.0241 12.3902 37.8082 12.4052 37.8279 12.45Z" fill="#323131"/>
<path d="M54.4098 12.754C54.5128 13.97 55.2781 15.0864 56.382 15.6296C56.9461 15.9037 57.422 15.9984 58.0941 15.9635C59.0459 15.9187 59.6493 15.6346 60.3557 14.912C61.0033 14.2491 61.3026 13.6212 61.3909 12.7241L61.4252 12.3902H57.9028H54.3804L54.4098 12.754Z" fill="#323131"/>
<path d="M56.9458 22.8061V27.2915H57.9024H58.8591V22.8061V18.3207H57.9024H56.9458V22.8061Z" fill="#323131"/>
</svg>
