<svg width="21" height="20" viewBox="0 0 21 20" fill="none" xmlns="http://www.w3.org/2000/svg">
<path d="M10.333 20C15.8558 20 20.333 15.5228 20.333 9.99999C20.333 4.47715 15.8558 0 10.333 0C4.81015 0 0.333008 4.47715 0.333008 9.99999C0.333008 15.5228 4.81015 20 10.333 20Z" fill="#1977F3"/>
<path d="M14.2256 12.8913L14.6686 10.0001H11.8954V8.12409C11.8954 7.33376 12.2821 6.56172 13.5253 6.56172H14.7867V4.10075C14.7867 4.10075 13.642 3.90527 12.5479 3.90527C10.2641 3.90527 8.77068 5.28904 8.77068 7.79643V10.0001H6.23096V12.8913H8.77068V19.8791C9.27975 19.9593 9.80147 20 10.333 20C10.8646 20 11.3863 19.9579 11.8954 19.8791V12.8913H14.2256Z" fill="white"/>
</svg>
