<svg width="21" height="20" viewBox="0 0 21 20" fill="none" xmlns="http://www.w3.org/2000/svg">
<g clip-path="url(#clip0_2583_5777)">
<path d="M20.656 10.1871C20.656 9.36767 20.5879 8.76973 20.4407 8.14966H10.8657V11.848H16.486C16.3727 12.7671 15.7608 14.1512 14.4011 15.0813L14.382 15.2051L17.4094 17.4969L17.6192 17.5174C19.5455 15.7789 20.656 13.221 20.656 10.1871Z" fill="#4285F4"/>
<path d="M10.8658 19.9312C13.6192 19.9312 15.9308 19.0453 17.6192 17.5173L14.4011 15.0812C13.5399 15.6681 12.3841 16.0778 10.8658 16.0778C8.16892 16.0778 5.88002 14.3394 5.06409 11.9365L4.94449 11.9464L1.79654 14.3271L1.75537 14.439C3.43238 17.6944 6.87711 19.9312 10.8658 19.9312Z" fill="#34A853"/>
<path d="M5.06398 11.9366C4.84869 11.3165 4.72409 10.6521 4.72409 9.96559C4.72409 9.27902 4.84869 8.61467 5.05265 7.9946L5.04695 7.86253L1.85955 5.4436L1.75526 5.49208C1.06408 6.84299 0.66748 8.36002 0.66748 9.96559C0.66748 11.5712 1.06408 13.0881 1.75526 14.439L5.06398 11.9366Z" fill="#FBBC05"/>
<path d="M10.8658 3.85336C12.7807 3.85336 14.0725 4.66168 14.809 5.33717L17.6872 2.59107C15.9195 0.985496 13.6192 0 10.8658 0C6.87711 0 3.43239 2.23672 1.75537 5.49214L5.05277 7.99465C5.88003 5.59183 8.16893 3.85336 10.8658 3.85336Z" fill="#EB4335"/>
</g>
<defs>
<clipPath id="clip0_2583_5777">
<rect width="20" height="20" fill="white" transform="translate(0.666504)"/>
</clipPath>
</defs>
</svg>
